<svg id="Layer_1" data-name="Layer 1" xmlns="http://www.w3.org/2000/svg" xmlns:xlink="http://www.w3.org/1999/xlink" viewBox="0 0 2000 2000"><defs><style>.cls-1{fill:url(#linear-gradient);}.cls-2{fill:url(#linear-gradient-2);}.cls-3{fill:url(#linear-gradient-3);}</style><linearGradient id="linear-gradient" x1="1258.15" y1="539.49" x2="1258.15" y2="1199.91" gradientUnits="userSpaceOnUse"><stop offset="0" stop-color="#04111b"/><stop offset="1" stop-color="#235487"/></linearGradient><linearGradient id="linear-gradient-2" x1="653.46" y1="539.49" x2="653.46" y2="1199.91" xlink:href="#linear-gradient"/><linearGradient id="linear-gradient-3" x1="1258.15" y1="539.49" x2="1258.15" y2="1199.91" xlink:href="#linear-gradient"/></defs><path d="M653.46,1327c-126.21,0-228.89-102.68-228.89-228.89v-20.62H553.13v20.62a100.33,100.33,0,1,0,200.65,0V679.33H882.34V1098.1C882.34,1224.31,779.66,1327,653.46,1327Z"/><polygon points="1446.88 1326.99 1446.88 1018.86 1258.15 1321.36 1069.43 1018.86 1069.43 1326.99 940.88 1326.99 940.88 679.34 1047.42 679.34 1258.15 1053.34 1468.9 679.34 1575.43 679.34 1575.43 1326.99 1446.88 1326.99"/><polygon class="cls-1" points="1108.81 673.01 1407.5 673.01 1258.15 945.03 1108.81 673.01"/><path class="cls-2" d="M653.46,1320.66c-122.72,0-222.56-99.84-222.56-222.56v-14.29H546.8v14.29a106.66,106.66,0,1,0,213.31,0V685.66H876V1098.1C876,1220.82,776.18,1320.66,653.46,1320.66Z"/><polygon class="cls-3" points="1453.2 1320.66 1453.2 996.77 1258.15 1309.41 1063.11 996.77 1063.11 1320.66 947.21 1320.66 947.21 685.66 1043.26 685.66 1258.15 1068.96 1473.06 685.66 1569.1 685.66 1569.1 1320.66 1453.2 1320.66"/></svg>